<svg width="60" height="60" viewBox="11 10 60 60" fill="none" xmlns="http://www.w3.org/2000/svg">
<g filter="url(#filter0_d_1_705)">
<path fill-rule="evenodd" clip-rule="evenodd" d="M41 70C53.1503 70 63 60.1503 63 48C63 35.8497 53.1503 26 41 26C28.8497 26 19 35.8497 19 48C19 60.1503 28.8497 70 41 70Z" fill="black" fill-opacity="0.01"/>
</g>
<g filter="url(#filter1_d_1_705)">
<path fill-rule="evenodd" clip-rule="evenodd" d="M41 70C57.5685 70 71 56.5685 71 40C71 23.4315 57.5685 10 41 10C24.4315 10 11 23.4315 11 40C11 56.5685 24.4315 70 41 70Z" fill="#2196F3"/>
<path d="M69 40C69 55.464 56.464 68 41 68C25.536 68 13 55.464 13 40C13 24.536 25.536 12 41 12C56.464 12 69 24.536 69 40Z" stroke="#42A5F5" stroke-width="4"/>
</g>
<mask id="mask0_1_705" style="mask-type:luminance" maskUnits="userSpaceOnUse" x="11" y="10" width="60" height="60">
<path fill-rule="evenodd" clip-rule="evenodd" d="M41 70C57.5685 70 71 56.5685 71 40C71 23.4315 57.5685 10 41 10C24.4315 10 11 23.4315 11 40C11 56.5685 24.4315 70 41 70Z" fill="white"/>
</mask>
<g mask="url(#mask0_1_705)">
<path d="M13.714 32.875H67.536" stroke="#42A5F5" stroke-width="4" stroke-linecap="square"/>
<path d="M13.714 48.625H67.536" stroke="#42A5F5" stroke-width="4" stroke-linecap="square"/>
<path d="M40.25 14.5C40.25 14.5 30.2878 26.0775 30.5035 40.75C30.7191 55.4225 40.25 65.5 40.25 65.5" stroke="#42A5F5" stroke-width="4" stroke-linecap="round" stroke-linejoin="round"/>
<path d="M41 14.5C41 14.5 50.9622 26.0775 50.7465 40.75C50.5309 55.4225 41 65.5 41 65.5" stroke="#42A5F5" stroke-width="4" stroke-linecap="round" stroke-linejoin="round"/>
</g>
<path fill-rule="evenodd" clip-rule="evenodd" d="M50.5022 30.515C50.7022 30.3995 50.9227 30.3277 51.1532 30.3132C52.1697 30.2492 55.1056 30.1652 55.7423 31.268C56.3791 32.3709 54.8374 34.8708 54.2737 35.7185C54.1459 35.9106 53.9736 36.0655 53.7738 36.1809L47.698 39.6888L48.5419 56.7891C48.5537 57.0286 48.4326 57.255 48.2269 57.3782L46.9777 58.1264C46.8131 58.225 46.6134 58.2458 46.432 58.1831L45.4852 57.8561C45.3266 57.8014 45.1953 57.6873 45.119 57.5379L38.661 44.9063L32.2919 48.5835L31.605 53.2549C31.5574 53.5783 31.277 53.8159 30.9502 53.8097L30.4522 53.8003C30.2004 53.7955 29.974 53.6455 29.8714 53.4154L28.0817 49.3993C26.8516 49.4386 25.6967 49.3178 25.3868 48.7811C25.0773 48.245 25.5505 47.1892 26.2006 46.1482L23.6371 42.6173C23.4891 42.4134 23.4724 42.1423 23.5942 41.9218L23.835 41.4858C23.993 41.1997 24.339 41.0757 24.6428 41.1962L29.005 42.9263L35.3855 39.2426L27.7268 27.4138C27.6356 27.273 27.6025 27.1023 27.6343 26.9375L27.8246 25.9541C27.861 25.7657 27.9788 25.6031 28.1465 25.5099L29.4191 24.8021C29.6286 24.6855 29.8853 24.6939 30.0867 24.8239L44.3845 34.047L50.5022 30.515Z" fill="white"/>
<mask id="mask1_1_705" style="mask-type:luminance" maskUnits="userSpaceOnUse" x="23" y="24" width="33" height="35">
<path fill-rule="evenodd" clip-rule="evenodd" d="M50.5022 30.515C50.7022 30.3995 50.9227 30.3277 51.1532 30.3132C52.1697 30.2492 55.1056 30.1652 55.7423 31.268C56.3791 32.3709 54.8374 34.8708 54.2737 35.7185C54.1459 35.9106 53.9736 36.0655 53.7738 36.1809L47.698 39.6888L48.5419 56.7891C48.5537 57.0286 48.4326 57.255 48.2269 57.3782L46.9777 58.1264C46.8131 58.225 46.6134 58.2458 46.432 58.1831L45.4852 57.8561C45.3266 57.8014 45.1953 57.6873 45.119 57.5379L38.661 44.9063L32.2919 48.5835L31.605 53.2549C31.5574 53.5783 31.277 53.8159 30.9502 53.8097L30.4522 53.8003C30.2004 53.7955 29.974 53.6455 29.8714 53.4154L28.0817 49.3993C26.8516 49.4386 25.6967 49.3178 25.3868 48.7811C25.0773 48.245 25.5505 47.1892 26.2006 46.1482L23.6371 42.6173C23.4891 42.4134 23.4724 42.1423 23.5942 41.9218L23.835 41.4858C23.993 41.1997 24.339 41.0757 24.6428 41.1962L29.005 42.9263L35.3855 39.2426L27.7268 27.4138C27.6356 27.273 27.6025 27.1023 27.6343 26.9375L27.8246 25.9541C27.861 25.7657 27.9788 25.6031 28.1465 25.5099L29.4191 24.8021C29.6286 24.6855 29.8853 24.6939 30.0867 24.8239L44.3845 34.047L50.5022 30.515Z" fill="white"/>
</mask>
<g mask="url(#mask1_1_705)">
<rect x="44.8436" y="32.271" width="1.30853" height="12.4084" transform="rotate(60 44.8436 32.271)" fill="#EBECF2"/>
<path fill-rule="evenodd" clip-rule="evenodd" d="M48.2269 57.3782C48.4326 57.2551 48.5537 57.0286 48.5418 56.7891L47.6704 39.1297L38.434 44.4623L45.1189 57.538C45.1953 57.6874 45.3266 57.8014 45.4852 57.8562L46.432 58.1832C46.6133 58.2458 46.8131 58.225 46.9776 58.1265L48.2269 57.3782Z" fill="#DEE1E3"/>
<path opacity="0.4" fill-rule="evenodd" clip-rule="evenodd" d="M28.1442 49.2884L28.0552 49.3398L29.8714 53.4154C29.974 53.6455 30.2004 53.7955 30.4523 53.8003L30.9502 53.8097C31.277 53.8159 31.5575 53.5783 31.605 53.255L32.3306 48.3205L31.8676 48.5878C31.7243 48.6706 31.5702 48.7324 31.4087 48.7684C30.8586 48.8912 29.4624 49.1822 28.1442 49.2884Z" fill="#DEE1E3"/>
<path fill-rule="evenodd" clip-rule="evenodd" d="M38.5558 44.7006L47.6852 39.4297L47.7844 41.441L40.2635 48.0409L38.5558 44.7006Z" fill="#C5C6CC"/>
<path fill-rule="evenodd" clip-rule="evenodd" d="M56.7899 34.4396L26.9989 51.6394C26.9989 51.6394 26.1199 50.0507 25.3869 48.7811C25.378 48.7657 25.3696 48.7501 25.3617 48.7344C26.7132 48.8322 29.4345 48.7222 32.0737 47.1985L52.6982 35.2909C54.9898 33.9679 55.5511 32.2545 55.8603 31.518C56.3388 32.8031 56.7899 34.4396 56.7899 34.4396Z" fill="#DEE1E3"/>
</g>
<defs>
<filter id="filter0_d_1_705" x="8" y="23" width="66" height="66" filterUnits="userSpaceOnUse" color-interpolation-filters="sRGB">
<feFlood flood-opacity="0" result="BackgroundImageFix"/>
<feColorMatrix in="SourceAlpha" type="matrix" values="0 0 0 0 0 0 0 0 0 0 0 0 0 0 0 0 0 0 127 0" result="hardAlpha"/>
<feOffset dy="8"/>
<feGaussianBlur stdDeviation="5.5"/>
<feColorMatrix type="matrix" values="0 0 0 0 0.215686 0 0 0 0 0.407843 0 0 0 0 0.556863 0 0 0 0.25 0"/>
<feBlend mode="normal" in2="BackgroundImageFix" result="effect1_dropShadow_1_705"/>
<feBlend mode="normal" in="SourceGraphic" in2="effect1_dropShadow_1_705" result="shape"/>
</filter>
<filter id="filter1_d_1_705" x="0" y="0" width="82" height="82" filterUnits="userSpaceOnUse" color-interpolation-filters="sRGB">
<feFlood flood-opacity="0" result="BackgroundImageFix"/>
<feColorMatrix in="SourceAlpha" type="matrix" values="0 0 0 0 0 0 0 0 0 0 0 0 0 0 0 0 0 0 127 0" result="hardAlpha"/>
<feOffset dy="1"/>
<feGaussianBlur stdDeviation="5.5"/>
<feColorMatrix type="matrix" values="0 0 0 0 0.215686 0 0 0 0 0.407843 0 0 0 0 0.556863 0 0 0 0.3 0"/>
<feBlend mode="normal" in2="BackgroundImageFix" result="effect1_dropShadow_1_705"/>
<feBlend mode="normal" in="SourceGraphic" in2="effect1_dropShadow_1_705" result="shape"/>
</filter>
</defs>
</svg>
